# xmcd
#
# Track frame offsets: 
#        150
#        24927
#        51828
#        83813
#        114563
#        146866
#        177685
#        214504
#        245448
#        270245
#
# Disc length: 3950 seconds
#
# Revision: 0
# Processed by: cddbd v1.5.2PL0 Copyright (c) Steve Scherf et al.
# Submitted via: ExactAudioCopy v1.0b3
#
DISCID=880f6c0a
DTITLE=Various Artist - This Is More House Music - CD 2
DYEAR=1900
DGENRE=
TTITLE0=Skreatch Vs. Joe Smooth - Promised Milkshake (Original Extende
TTITLE0=d)
TTITLE1=Carol Jiani - Somebody Else's Guy '07 (Club Mix)
TTITLE2=Malone - Read My Lips (Mikem Xtd Club Mix)
TTITLE3=Lissat and Düse - Music Is My Life (Techhouse Mix)
TTITLE4=DJ Fred Feat. Ange - Show Me The Way (Housesurfer Mix)
TTITLE5=Randy Jones - Your Disco Needs You (Disco Deejays Rmx)
TTITLE6=Scotty - God Is A DJ (Insomnia Booty Mix)
TTITLE7=Purestar - The Music's Got Me (Club Mix)
TTITLE8=Enemy Mine - Who Needs Enemies (Original Mix)
TTITLE9=T.C. Club - Throw Pt. 2 (Funky Engine Rmx)
EXTD=
EXTT0=
EXTT1=
EXTT2=
EXTT3=
EXTT4=
EXTT5=
EXTT6=
EXTT7=
EXTT8=
EXTT9=
PLAYORDER=
